<svg width="500" height="500" viewBox="0 0 500 500" fill="none" xmlns="http://www.w3.org/2000/svg">
<rect width="500" height="10" fill="black"/>
<rect y="490" width="500" height="10" fill="black"/>
<rect width="10" height="500" fill="black"/>
<rect x="490" width="10" height="500" fill="black"/>
<circle cx="433" cy="65" r="40" fill="black"/>
<circle cx="433" cy="65" r="36" fill="white"/>
<rect x="10" y="25" width="358" height="95" fill="black"/>
<g style="mix-blend-mode:darken">
<path d="M94.2514 236.426C66.9453 225.657 111.734 285.257 137.542 316.403C146.699 323.398 165.014 341.425 165.014 357.579C192.487 398.755 94.2514 333.824 94.2514 327.489C50.9612 338.575 137.542 359.955 121.724 420.135C105.907 480.315 178.334 453.789 203.31 420.135C228.285 386.482 258.255 372.624 295.301 433.596C332.348 494.569 364.815 411.029 404.359 390.045C443.903 369.061 389.791 338.575 339.84 316.403C289.89 294.231 350.247 257.41 346.5 236.426C342.754 215.443 305.708 182.581 258.255 190.103C210.802 197.626 224.122 196.438 178.334 175.058C132.547 153.678 147.948 176.246 146.699 226.132C145.45 276.019 128.384 249.888 94.2514 236.426Z" stroke="#AAAAFF" stroke-width="62"/>
</g>
<circle cx="243" cy="317" r="150" fill="#5500FF"/>
</svg>
