<svg width="500" height="500" viewBox="0 0 500 500" fill="none" xmlns="http://www.w3.org/2000/svg">
<rect width="500" height="10" fill="black"/>
<rect y="490" width="500" height="10" fill="black"/>
<rect width="10" height="500" fill="black"/>
<rect x="490" width="10" height="500" fill="black"/>
<circle cx="425" cy="75" r="50" fill="#8800FF"/>
<rect x="10" y="10" width="353" height="65" fill="black"/>
<g style="mix-blend-mode:darken">
<path d="M101.251 169.426C73.9453 158.657 118.734 218.257 144.542 249.403C153.699 256.398 172.014 274.425 172.014 290.579C199.487 331.755 101.251 266.824 101.251 260.489C57.9612 271.575 144.542 292.955 128.724 353.135C112.907 413.315 185.334 386.789 210.31 353.135C235.285 319.482 265.255 305.624 302.301 366.596C339.348 427.569 371.815 344.029 411.359 323.045C450.903 302.061 396.791 271.575 346.84 249.403C296.89 227.231 357.247 190.41 353.5 169.426C349.754 148.443 312.708 115.581 265.255 123.103C217.802 130.626 231.122 129.438 185.334 108.058C139.547 86.6784 154.948 109.246 153.699 159.132C152.45 209.019 135.384 182.888 101.251 169.426Z" stroke="#7700FF" stroke-width="62"/>
</g>
<circle cx="250" cy="250" r="150" fill="#5500FF"/>
</svg>
